<svg width="55" height="55" viewBox="0 0 55 55" fill="none" xmlns="http://www.w3.org/2000/svg">
<path d="M51.728 27.2051H47.4756V20.0286C47.4756 19.5743 47.1073 19.2065 46.6535 19.2065H33.3351V12.0449C33.3351 11.5905 32.9668 11.2228 32.513 11.2228H3.07893C2.62458 11.2228 2.25684 11.5905 2.25684 12.0449V39.0017C2.25684 39.4556 2.62458 39.8239 3.07893 39.8239H9.9505C10.2355 41.9432 12.0507 43.5842 14.2462 43.5842C16.4417 43.5842 18.2569 41.9432 18.5419 39.8239H32.513H37.8215C38.1065 41.9432 39.9228 43.5842 42.1205 43.5842C44.3182 43.5842 46.1345 41.9432 46.42 39.8239H51.7286C52.1824 39.8239 52.5506 39.4556 52.5506 39.0017V28.0272C52.5501 27.5728 52.1818 27.2051 51.728 27.2051ZM14.2462 41.94C12.7604 41.94 11.5514 40.7304 11.5514 39.2434C11.5514 37.7565 12.7604 36.5469 14.2462 36.5469C15.732 36.5469 16.941 37.7565 16.941 39.2434C16.941 40.7304 15.7325 41.94 14.2462 41.94ZM14.2462 34.9027C12.2211 34.9027 10.521 36.2998 10.0448 38.1796H3.90102V12.867H31.6909V20.0286V28.0272V38.1791H18.4482C17.9719 36.2998 16.2713 34.9027 14.2462 34.9027ZM42.1205 41.94C40.6325 41.94 39.4224 40.7304 39.4224 39.2434C39.4224 37.7565 40.6325 36.5469 42.1205 36.5469C43.6085 36.5469 44.8192 37.7565 44.8192 39.2434C44.8192 40.7304 43.6079 41.94 42.1205 41.94ZM50.9059 38.1791H46.3258C45.849 36.2992 44.1472 34.9022 42.1205 34.9022C40.0938 34.9022 38.3921 36.2992 37.9158 38.1791H33.3357V28.0272V20.8507H45.832V28.0272C45.832 28.481 46.2003 28.8493 46.6541 28.8493H50.9065V38.1791H50.9059Z" fill="black"/>
</svg>
