<svg width="55" height="55" viewBox="0 0 55 55" fill="none" xmlns="http://www.w3.org/2000/svg">
<path d="M49.6218 18.0928L27.1161 3.08892C26.8398 2.90477 26.4803 2.90477 26.2041 3.08892L3.69832 18.0928C3.46978 18.2451 3.33221 18.5022 3.33221 18.7767C3.33221 19.0513 3.46923 19.3084 3.69832 19.4607L7.11661 21.7396V33.7493C7.11661 34.0294 7.2591 34.2903 7.49477 34.4415L26.3477 46.528C26.483 46.6146 26.6371 46.6579 26.7916 46.6579C26.9533 46.6579 27.1155 46.6102 27.2547 46.5149L37.0909 39.8044V44.4837L33.4265 51.8125C33.2993 52.0673 33.313 52.3704 33.4621 52.6127C33.6117 52.8543 33.877 53.0023 34.1614 53.0023H41.6639C41.9489 53.0023 42.2136 52.8543 42.3632 52.6127C42.5123 52.3704 42.5266 52.0673 42.3989 51.8125L38.7345 44.4837V38.6825L44.9698 34.4284C45.194 34.2755 45.3283 34.0212 45.3283 33.7493V22.3227L49.6213 19.4607C49.8498 19.3084 49.9874 19.0513 49.9874 18.7767C49.9874 18.5022 49.8504 18.2451 49.6218 18.0928ZM35.4921 51.3581L37.913 46.5165L40.3338 51.3581H35.4921ZM26.7774 44.8504L8.7608 33.2999V22.8357L26.2041 34.4651C26.3422 34.5572 26.5011 34.6032 26.6601 34.6032C26.819 34.6032 26.978 34.5572 27.1161 34.4651L37.0909 27.8149V37.8138L26.7774 44.8504ZM43.6846 33.3153L38.7351 36.6924V26.7188L43.6846 23.4189V33.3153ZM44.2212 21.0852C44.1001 21.1301 43.9932 21.2019 43.9066 21.2951L37.913 25.291L27.1161 18.0928C26.7374 17.8406 26.2276 17.9431 25.9761 18.3208C25.7245 18.6984 25.8265 19.2092 26.2041 19.4607L36.431 26.2787L26.6601 32.793L5.63628 18.7767L26.6601 4.76107L47.6839 18.7767L44.2212 21.0852Z" fill="black"/>
</svg>
