<svg width="55" height="55" viewBox="0 0 55 55" fill="none" xmlns="http://www.w3.org/2000/svg">
<path d="M32.0538 24.7718L28.0759 28.7497V14.6007C28.0759 14.0548 27.6331 13.6125 27.0872 13.6125C26.5413 13.6125 26.0991 14.0548 26.0991 14.6007V31.1355C26.0991 31.2007 26.1056 31.2659 26.1188 31.33C26.1243 31.358 26.1347 31.3837 26.1429 31.4111C26.1528 31.4457 26.161 31.4808 26.1752 31.5147C26.1889 31.5476 26.2076 31.5772 26.2246 31.6085C26.2383 31.6342 26.2498 31.6605 26.2662 31.6852C26.3386 31.7937 26.4323 31.8869 26.5408 31.9598C26.5611 31.9735 26.583 31.9822 26.6038 31.9937C26.6389 32.0135 26.6729 32.0343 26.7107 32.0502C26.7403 32.0623 26.7715 32.0694 26.8017 32.0787C26.8329 32.088 26.8625 32.1001 26.8949 32.1061C26.9584 32.1187 27.0231 32.1258 27.0878 32.1258C27.1524 32.1258 27.2171 32.1193 27.2807 32.1061C27.313 32.0995 27.3432 32.088 27.3744 32.0781C27.4046 32.0688 27.4352 32.0623 27.4648 32.0502C27.5032 32.0343 27.5383 32.0129 27.5739 31.9927C27.5942 31.9811 27.615 31.9729 27.6347 31.9598C27.6901 31.923 27.7416 31.8814 27.7877 31.8343L33.4519 26.1699C33.8377 25.7841 33.8377 25.1582 33.4519 24.7724C33.0655 24.3854 32.4402 24.3854 32.0538 24.7718Z" fill="black"/>
<path d="M27.394 4.95679C14.8159 4.95679 4.58301 15.1898 4.58301 27.7686C4.58301 40.3474 14.8159 50.5798 27.394 50.5798C39.9721 50.5798 50.2056 40.3468 50.2056 27.7686C50.2056 15.1904 39.9721 4.95679 27.394 4.95679ZM27.394 48.6024C15.906 48.6024 6.55933 39.2562 6.55933 27.768C6.55933 16.2799 15.9055 6.93313 27.394 6.93313C38.8826 6.93313 48.2282 16.2799 48.2282 27.768C48.2282 39.2562 38.882 48.6024 27.394 48.6024Z" fill="black"/>
</svg>
