<svg width="55" height="55" viewBox="0 0 55 55" fill="none" xmlns="http://www.w3.org/2000/svg">
<path d="M50.6445 38.0993C50.5398 35.1238 49.613 31.5384 48.0346 28.0039C44.5653 20.2329 39.3834 15.5157 35.9832 17.036L34.0069 17.9179V13.2297C34.0069 9.50561 27.5896 6.69678 19.0797 6.69678C10.5699 6.69678 4.15263 9.50561 4.15263 13.2297V21.6239C4.15263 21.6683 4.15866 21.711 4.16579 21.7538C4.15921 21.7965 4.15263 21.8393 4.15263 21.8837C4.15263 21.9593 4.15976 22.0344 4.16469 22.1089C4.15866 22.1484 4.15263 22.1884 4.15263 22.2295V30.6237C4.15263 30.6681 4.15866 30.7108 4.16579 30.7536C4.15921 30.7963 4.15263 30.8391 4.15263 30.8834C4.15263 30.9783 4.15976 31.072 4.16798 31.1652C4.15866 31.2139 4.15263 31.2644 4.15263 31.3159V39.7089C4.15263 39.7533 4.15866 39.7961 4.16579 39.8388C4.15921 39.8816 4.15263 39.9243 4.15263 39.9687C4.15263 43.6934 10.5699 46.5022 19.0797 46.5022C24.4733 46.5022 29.3905 45.274 31.9889 43.33C34.3077 46.3362 36.8025 48.107 38.8912 48.107C39.3686 48.107 39.8251 48.0149 40.2526 47.8236L48.1541 44.2957C49.8739 43.5306 50.7585 41.329 50.6445 38.0993ZM19.0797 8.34152C26.9078 8.34152 32.3627 10.918 32.3627 13.2303C32.3627 15.5431 26.9072 18.1201 19.0797 18.1201C11.2523 18.1201 5.79683 15.5431 5.79683 13.2303C5.79683 10.918 11.2517 8.34152 19.0797 8.34152ZM5.79683 21.6244V16.3049C8.2286 18.3963 13.1436 19.7643 19.0797 19.7643C25.0164 19.7643 29.9314 18.3963 32.3627 16.3049V18.6523L28.079 20.5639C26.432 21.3005 25.5979 23.3267 25.5672 26.1021C23.5843 26.5345 21.3652 26.7735 19.0792 26.7735C11.2512 26.7735 5.79628 24.1971 5.79628 21.8848C5.79628 21.8404 5.79025 21.7976 5.78313 21.7549C5.79025 21.7116 5.79683 21.6688 5.79683 21.6244ZM5.79683 30.6248V24.9589C8.2286 27.0497 13.1436 28.4177 19.0797 28.4177C21.3707 28.4177 23.6161 28.1979 25.6395 27.7803C25.8259 29.8136 26.3712 32.1347 27.2755 34.5862C24.8465 35.3716 22.0963 35.7733 19.0797 35.7733C11.2517 35.7733 5.79683 33.1968 5.79683 30.8845C5.79683 30.8402 5.7908 30.7974 5.78368 30.7547C5.79025 30.7119 5.79683 30.6692 5.79683 30.6248ZM19.0797 44.8597C11.2517 44.8597 5.79683 42.2827 5.79683 39.9704C5.79683 39.926 5.7908 39.8832 5.78368 39.8405C5.79025 39.7977 5.79683 39.755 5.79683 39.7106V33.9586C8.2286 36.0495 13.1436 37.4175 19.0797 37.4175C22.3089 37.4175 25.2619 36.9768 27.8795 36.1169C27.9831 36.3636 28.0905 36.6107 28.2012 36.8585C29.0578 38.7772 30.0208 40.5009 31.0336 41.9993C28.7668 43.7263 24.0989 44.8597 19.0797 44.8597ZM39.5829 46.3241C37.4706 47.2668 32.8943 43.336 29.7029 36.1882C26.5115 29.0403 26.6398 23.0083 28.7487 22.0656L33.8561 19.7862C33.5733 20.7415 33.4467 21.8985 33.4939 23.2346C33.5985 26.2106 34.5253 29.7961 36.1037 33.3311C38.5257 38.7553 41.7801 42.6822 44.6826 44.048L39.5829 46.3241ZM47.4843 42.7967C45.3737 43.7372 40.7963 39.8087 37.6049 32.6608C36.1109 29.3143 35.2345 25.9459 35.137 23.1766C35.0498 20.6977 35.6028 19.0069 36.654 18.5372C36.8617 18.4446 37.093 18.3991 37.3451 18.3991C39.653 18.3991 43.6572 22.2289 46.5345 28.6742C48.0286 32.0201 48.9049 35.388 49.0025 38.1574C49.0885 40.6363 48.5355 42.3271 47.4843 42.7967Z" fill="black"/>
</svg>
