<svg width="55" height="55" viewBox="0 0 55 55" fill="none" xmlns="http://www.w3.org/2000/svg">
<path d="M50.4309 9.87939H30.4276C28.8618 9.87939 27.5881 11.1531 27.5881 12.7189V15.1052H5.18485C3.174 15.1052 1.53802 16.7412 1.53802 18.7526V35.5908C1.53802 37.6011 3.174 39.2365 5.18485 39.2365H8.68754V46.2978C8.68754 46.6233 8.87936 46.9177 9.17696 47.0497C9.28383 47.0969 9.39673 47.1199 9.50909 47.1199C9.70968 47.1199 9.90808 47.0464 10.0621 46.9061L18.5039 39.2365H33.1943C35.2046 39.2365 36.8406 37.6011 36.8406 35.5908V27.5836H40.8266L46.7879 32.999C46.9425 33.1393 47.1403 33.2127 47.3409 33.2127C47.4533 33.2127 47.5667 33.1897 47.6736 33.1426C47.9712 33.011 48.163 32.7162 48.163 32.3906V27.5836H50.4304C51.9951 27.5836 53.2683 26.3093 53.2683 24.7435V12.7189C53.2688 11.1531 51.9962 9.87939 50.4309 9.87939ZM35.1969 35.5902C35.1969 36.694 34.2986 37.5918 33.1948 37.5918H18.1866C17.9822 37.5918 17.7854 37.668 17.6336 37.8055L10.3312 44.4398V38.4139C10.3312 37.9595 9.96343 37.5918 9.50909 37.5918H5.1843C4.07995 37.5918 3.18167 36.694 3.18167 35.5902V18.752C3.18167 17.6477 4.07995 16.7488 5.1843 16.7488H28.402C28.4047 16.7488 28.4075 16.7494 28.4102 16.7494C28.413 16.7494 28.4157 16.7488 28.4184 16.7488H33.1948C34.2992 16.7488 35.1969 17.6477 35.1969 18.752V35.5902ZM51.6246 24.7435C51.6246 25.4028 51.0892 25.9394 50.4309 25.9394H47.3415C46.8877 25.9394 46.5194 26.3071 46.5194 26.7615V30.5332L41.6975 26.1531C41.5462 26.0161 41.3489 25.9394 41.1445 25.9394H36.8406V18.7526C36.8406 16.7417 35.2046 15.1052 33.1943 15.1052H29.2323V12.7189C29.2323 12.0596 29.7689 11.5236 30.4276 11.5236H50.4309C51.0892 11.5236 51.6246 12.0596 51.6246 12.7189V24.7435Z" fill="#231F20"/>
</svg>
