<svg width="55" height="55" viewBox="0 0 55 55" fill="none" xmlns="http://www.w3.org/2000/svg">
<path d="M34.516 37.3079C34.0622 37.3079 33.6939 37.6762 33.6939 38.13V45.6445H6.85898V10.24H33.6934V16.488C33.6934 16.9423 34.0617 17.3101 34.5155 17.3101C34.9692 17.3101 35.3375 16.9423 35.3375 16.488V9.41792C35.3375 8.96358 34.9692 8.59583 34.5155 8.59583H6.03688C5.58253 8.59583 5.21478 8.96358 5.21478 9.41792V46.466C5.21478 46.9198 5.58253 47.2881 6.03688 47.2881H34.5155C34.9692 47.2881 35.3375 46.9198 35.3375 46.466V38.13C35.3381 37.6756 34.9698 37.3079 34.516 37.3079Z" fill="black"/>
<path d="M49.5061 10.7864C49.4623 10.5727 49.3351 10.3852 49.1532 10.2652L45.0257 7.54351C44.8437 7.42404 44.6229 7.38183 44.4069 7.42458C44.1932 7.46843 44.0063 7.59558 43.8863 7.77809L40.8648 12.3692C40.8335 12.4169 40.8078 12.4668 40.7875 12.5178L24.8037 36.7713C24.7703 36.8223 24.744 36.8771 24.7226 36.9335C24.63 37.0426 24.562 37.1752 24.5368 37.3265L23.4993 43.5267C23.4445 43.8534 23.5914 44.18 23.8709 44.3576C24.0052 44.442 24.1576 44.4842 24.3099 44.4842C24.4749 44.4842 24.6399 44.4343 24.7807 44.3357L29.9287 40.7387C29.978 40.7042 30.0219 40.6647 30.0613 40.622C30.1523 40.5623 30.2356 40.4888 30.2992 40.3924L46.2917 16.1268C46.3235 16.078 46.3493 16.0265 46.3701 15.9733L49.3861 11.4052C49.5067 11.2227 49.55 11.0007 49.5061 10.7864ZM26.0001 38.5443L28.1612 39.9682L25.4439 41.8667L26.0001 38.5443ZM29.379 38.8013L26.6288 36.9894L41.7165 14.0962L44.4667 15.9086L29.379 38.8013ZM45.3556 14.5253L42.6065 12.7134L44.8076 9.36912L47.561 11.1849L45.3556 14.5253Z" fill="black"/>
<path d="M25.6171 18.9827C26.0715 18.9827 26.4392 18.6149 26.4392 18.1606C26.4392 17.7063 26.0715 17.3385 25.6171 17.3385H10.3228C9.86848 17.3385 9.50073 17.7063 9.50073 18.1606C9.50073 18.6149 9.86848 18.9827 10.3228 18.9827H25.6171Z" fill="black"/>
<path d="M10.5141 25.7547H25.8045C26.2589 25.7547 26.6266 25.3869 26.6266 24.9326C26.6266 24.4782 26.2589 24.1105 25.8045 24.1105H10.5141C10.0597 24.1105 9.69196 24.4782 9.69196 24.9326C9.69196 25.3869 10.0597 25.7547 10.5141 25.7547Z" fill="black"/>
</svg>
