<svg width="428" height="332" viewBox="0 0 428 332" fill="none" xmlns="http://www.w3.org/2000/svg">
<g filter="url(#filter0_d)">
<path d="M322.511 192.041H166.193C161.794 192.041 158.229 188.475 158.229 184.077V35.2486C158.229 30.8501 161.794 27.2845 166.193 27.2845H322.511C326.909 27.2845 330.475 30.8501 330.475 35.2486V184.077C330.475 188.475 326.909 192.041 322.511 192.041Z" fill="#3F5C93"/>
<path d="M317.511 187.041H161.193C156.794 187.041 153.229 183.475 153.229 179.077V30.2486C153.229 25.8501 156.794 22.2845 161.193 22.2845H317.511C321.909 22.2845 325.475 25.8501 325.475 30.2486V179.077C325.475 183.475 321.909 187.041 317.511 187.041Z" fill="#6291D7"/>
<path d="M251.233 46.1322H177.064C175.743 46.1322 174.673 45.0622 174.673 43.7421C174.673 42.4219 175.743 41.3519 177.064 41.3519H251.233C252.553 41.3519 253.623 42.4219 253.623 43.7421C253.623 45.0622 252.553 46.1322 251.233 46.1322Z" fill="white"/>
<path d="M227.389 58.0577H177.064C175.743 58.0577 174.673 56.9877 174.673 55.6675C174.673 54.3474 175.743 53.2771 177.064 53.2771H227.389C228.71 53.2771 229.78 54.3474 229.78 55.6675C229.78 56.9877 228.71 58.0577 227.389 58.0577Z" fill="white"/>
<path d="M189.635 77.5971H176.38C175.437 77.5971 174.673 76.833 174.673 75.8898C174.673 74.9467 175.437 74.1826 176.38 74.1826H189.635C190.578 74.1826 191.342 74.9467 191.342 75.8898C191.342 76.832 190.578 77.5971 189.635 77.5971Z" fill="url(#paint0_linear)"/>
<path d="M195.404 132.472V175.076C195.404 176.019 194.64 176.784 193.696 176.784H186.799C185.856 176.784 185.092 176.019 185.092 175.076V132.472C185.092 131.529 185.856 130.765 186.799 130.765H193.696C194.64 130.765 195.404 131.529 195.404 132.472Z" fill="url(#paint1_linear)"/>
<path d="M214.149 115.355V175.076C214.149 176.019 213.385 176.784 212.442 176.784H205.544C204.601 176.784 203.837 176.019 203.837 175.076V115.355C203.837 114.412 204.601 113.648 205.544 113.648H212.442C213.385 113.648 214.149 114.413 214.149 115.355Z" fill="url(#paint2_linear)"/>
<path d="M236.723 132.472V175.076C236.723 176.019 235.959 176.784 235.016 176.784H228.119C227.175 176.784 226.411 176.019 226.411 175.076V132.472C226.411 131.529 227.175 130.765 228.119 130.765H235.016C235.959 130.765 236.723 131.529 236.723 132.472Z" fill="url(#paint3_linear)"/>
<path d="M255.468 115.355V175.076C255.468 176.019 254.703 176.784 253.76 176.784H246.863C245.92 176.784 245.155 176.019 245.155 175.076V115.355C245.155 114.412 245.92 113.648 246.863 113.648H253.76C254.703 113.648 255.468 114.413 255.468 115.355Z" fill="url(#paint4_linear)"/>
<path d="M278.042 144.948V175.076C278.042 176.019 277.278 176.784 276.335 176.784H269.437C268.494 176.784 267.73 176.019 267.73 175.076V144.948C267.73 144.005 268.494 143.241 269.437 143.241H276.335C277.278 143.242 278.042 144.006 278.042 144.948Z" fill="url(#paint5_linear)"/>
<path d="M296.787 132.472V175.076C296.787 176.019 296.023 176.784 295.08 176.784H288.182C287.239 176.784 286.475 176.019 286.475 175.076V132.472C286.475 131.529 287.239 130.765 288.182 130.765H295.08C296.022 130.765 296.787 131.529 296.787 132.472Z" fill="url(#paint6_linear)"/>
<path d="M195.404 148.207V175.075C195.404 176.018 194.64 176.782 193.696 176.782H186.799C185.856 176.782 185.092 176.018 185.092 175.075V148.207C185.092 147.264 185.856 146.5 186.799 146.5H193.696C194.64 146.501 195.404 147.265 195.404 148.207Z" fill="#ECF5FF"/>
<path d="M214.149 136.944V175.076C214.149 176.019 213.385 176.784 212.442 176.784H205.544C204.601 176.784 203.837 176.019 203.837 175.076V136.944C203.837 136.001 204.601 135.237 205.544 135.237H212.442C213.385 135.237 214.149 136.001 214.149 136.944Z" fill="#ECF5FF"/>
<path d="M236.723 148.207V175.075C236.723 176.018 235.959 176.782 235.016 176.782H228.119C227.175 176.782 226.411 176.018 226.411 175.075V148.207C226.411 147.264 227.175 146.5 228.119 146.5H235.016C235.959 146.501 236.723 147.265 236.723 148.207Z" fill="#ECF5FF"/>
<path d="M255.468 136.944V175.076C255.468 176.019 254.703 176.784 253.76 176.784H246.863C245.92 176.784 245.155 176.019 245.155 175.076V136.944C245.155 136.001 245.92 135.237 246.863 135.237H253.76C254.703 135.237 255.468 136.001 255.468 136.944Z" fill="#ECF5FF"/>
<path d="M278.042 156.417V175.075C278.042 176.018 277.278 176.782 276.335 176.782H269.437C268.494 176.782 267.73 176.018 267.73 175.075V156.417C267.73 155.474 268.494 154.71 269.437 154.71H276.335C277.278 154.711 278.042 155.475 278.042 156.417Z" fill="#ECF5FF"/>
<path d="M296.787 148.207V175.075C296.787 176.018 296.023 176.782 295.08 176.782H288.182C287.239 176.782 286.475 176.018 286.475 175.075V148.207C286.475 147.264 287.239 146.5 288.182 146.5H295.08C296.022 146.501 296.787 147.265 296.787 148.207Z" fill="#ECF5FF"/>
<path d="M51.2011 210.084C51.2011 212.22 50.0369 214.084 48.3097 215.077L47.8007 214.031C46.3805 211.113 46.3585 207.721 47.7197 204.798C49.7669 205.678 51.2011 207.714 51.2011 210.084Z" fill="#F9AFAB"/>
<path d="M112.958 158.079L111.247 154.743C111.715 151.998 111.914 149.012 111.757 145.812C111.722 145.089 111.668 144.356 111.595 143.612C108.026 143.928 97.5514 144.347 89.8475 139.459C90.4155 143.997 88.7194 149.025 85.9081 153.264C85.567 152.446 84.3399 149.915 82.2256 149.915C77.9962 149.915 77.3561 156.674 79.7213 159.893C78.0882 161.107 76.378 162.022 74.6838 162.531C74.6838 162.531 74.6768 162.524 74.6658 162.513V181.97H91.0677V173.492C93.2729 174.301 95.2311 174.766 96.6123 174.766C100.741 174.766 106.998 169.229 110.034 159.741H111.943C112.572 159.741 113.082 159.23 113.082 158.601C113.084 158.419 113.041 158.24 112.958 158.079Z" fill="#FCBEB7"/>
<path d="M79.7214 159.893C77.3562 156.674 77.9963 149.915 82.2258 149.915C84.339 149.915 85.5662 152.446 85.9082 153.264C88.7195 149.024 90.4157 143.997 89.8476 139.459C97.5525 144.348 108.026 143.929 111.595 143.611C111.668 144.356 111.722 145.09 111.757 145.812C112.066 145.519 112.791 144.704 112.843 143.475C112.845 143.475 112.846 143.475 112.846 143.475C112.846 143.44 112.846 143.406 112.845 143.37C112.845 143.359 112.846 143.35 112.846 143.339C112.846 143.333 112.845 143.326 112.845 143.319C112.751 136.315 106.339 124.42 90.6907 124.42C74.1098 124.42 71.0085 135.216 71.0085 135.216C71.0085 135.216 65.3008 138.342 65.3008 144.648C65.3008 152.932 74.2318 162.074 74.6659 162.514C74.6769 162.525 74.6839 162.532 74.6839 162.532C76.3781 162.022 78.0883 161.107 79.7214 159.893Z" fill="black"/>
<path d="M91.0686 181.97V173.492C86.5151 171.82 80.9085 168.674 77.1531 165.101L91.0686 181.97Z" fill="#F9AFAB"/>
<path d="M93.7799 161.761C96.2356 161.761 98.2264 159.77 98.2264 157.314C98.2264 154.858 96.2356 152.868 93.7799 152.868C91.3242 152.868 89.3335 154.858 89.3335 157.314C89.3335 159.77 91.3242 161.761 93.7799 161.761Z" fill="#F49795"/>
<path d="M103.286 164.188C102.392 164.188 101.781 163.849 101.41 163.541C100.948 163.157 100.754 162.744 100.733 162.698C100.64 162.492 100.732 162.249 100.938 162.156C101.143 162.063 101.385 162.154 101.478 162.359C101.503 162.413 102.052 163.53 103.626 163.348C103.85 163.322 104.054 163.483 104.08 163.708C104.106 163.933 103.945 164.136 103.72 164.162C103.569 164.18 103.424 164.188 103.286 164.188Z" fill="#311643"/>
<path d="M105.794 151.866C105.301 151.866 104.901 151.466 104.901 150.973V149.305C104.901 148.812 105.301 148.412 105.794 148.412C106.287 148.412 106.687 148.812 106.687 149.305V150.973C106.687 151.466 106.287 151.866 105.794 151.866Z" fill="#311643"/>
<path d="M111.82 149.729H109.063V144.646C109.063 144.42 108.88 144.237 108.654 144.237C108.428 144.237 108.245 144.42 108.245 144.646V155.633C108.245 155.859 108.428 156.042 108.654 156.042C108.88 156.042 109.063 155.859 109.063 155.633V150.548H111.82C112.046 150.548 112.229 150.365 112.229 150.139C112.229 149.913 112.046 149.729 111.82 149.729Z" fill="white"/>
<path d="M138.93 215.508L92.7779 233.485L79.1513 251.623C77.0511 254.418 74.0867 256.386 70.7714 257.261L90.9637 271.164L129.603 250.834L128.012 300.199H145.346L159.834 233.345C162.468 221.193 150.517 210.996 138.93 215.508Z" fill="#3F5C93"/>
<path d="M128.012 307.167V319.415C128.012 320.843 129.17 322.001 130.598 322.001H165.336C165.667 322.001 165.934 321.733 165.934 321.403V319.146C165.934 318.057 165.299 317.068 164.309 316.614L143.68 307.167H128.012Z" fill="black"/>
<path d="M128.012 300.199V307.167H143.68L145.346 300.199H128.012Z" fill="#FCBEB7"/>
<path d="M112.262 259.958L90.9636 271.164L75.0778 259.958H112.262Z" fill="#2A416C"/>
<path d="M53.4812 193.961L47.9797 204.273C46.3595 207.309 46.2925 210.937 47.7997 214.031L48.2727 215.002L52.5502 197.269C52.8192 196.151 53.1312 195.047 53.4812 193.961Z" fill="#FCBEB7"/>
<path d="M70.7714 257.261C70.8794 257.232 70.9874 257.203 71.0944 257.172C74.2788 256.257 77.1191 254.327 79.1513 251.623L92.7779 233.485L91.7078 196.609L105.442 199.6L110.89 182.412L74.6758 168.128C64.5616 173.768 57.0108 183.02 53.4824 193.96C53.1323 195.046 52.8203 196.15 52.5512 197.268L48.2737 215.001L37.7825 258.495L67.224 257.767C68.4341 257.737 69.6232 257.564 70.7714 257.261Z" fill="url(#paint7_linear)"/>
<path d="M91.8938 203.032L73.9148 191.716L91.7077 196.616L91.8938 203.032Z" fill="#5694DA"/>
<path d="M43.1501 305.917L36.6874 299.612C35.4263 298.381 33.463 298.233 32.0309 299.259L4.33067 319.118C3.97462 319.373 3.89367 319.868 4.1487 320.223L5.36484 321.92C6.00792 322.817 7.05101 323.34 8.15514 323.319L19.2784 323.104L43.1501 305.917Z" fill="black"/>
<path d="M43.1501 323.103H19.2783L43.1501 305.917V323.103Z" fill="#FCBEB7"/>
<path d="M121.883 292.704L71.0944 257.172C70.9874 257.203 70.8794 257.233 70.7714 257.261C69.6232 257.564 68.434 257.737 67.2229 257.767L37.7815 258.495C37.7815 271.152 45.3834 282.571 57.0597 287.453L86.9603 299.957L43.1501 305.915V323.102H112.305C128.644 323.103 135.271 302.07 121.883 292.704Z" fill="#3F5C93"/>
<path d="M184.684 144.981L174.249 141.514C173.63 141.308 172.954 141.366 172.379 141.672L165.926 145.111L164.466 145.429C163.921 145.548 163.471 145.929 163.264 146.446L160.725 152.8L117.458 184.77L110.89 182.414L105.442 199.602L118.14 202.224C121.089 202.833 124.147 201.912 126.269 199.776L166.886 158.879L174.344 154.495C175.031 154.091 175.465 153.364 175.495 152.568L175.525 151.776L176.008 151.31C176.518 150.82 176.777 150.125 176.715 149.422L176.657 148.765C177.2 148.235 177.451 147.474 177.332 146.725L177.227 146.065L184.261 146.888C184.702 146.94 185.122 146.689 185.287 146.276C185.495 145.75 185.22 145.159 184.684 144.981Z" fill="#FCBEB7"/>
<path d="M126.996 199.041L126.268 199.774C124.146 201.91 121.088 202.831 118.139 202.222L117.544 202.099V202.098C117.888 199.395 120.195 197.306 122.991 197.306C124.571 197.307 125.995 197.974 126.996 199.041Z" fill="#F9AFAB"/>
<path d="M344.781 301.441L343.102 308.421L324.789 314.171L327.422 301.441H344.781Z" fill="#FCBEB7"/>
<path d="M406.482 301.441L405.983 310.063L407.124 310.484L407.876 314.175L389.58 308.42L389.123 301.441H406.482Z" fill="#FCBEB7"/>
<path d="M310.664 316.883L325.552 310.483L324.789 314.172L343.102 308.422V313.669C343.102 315.514 342.137 317.188 340.619 318.128L339.044 322.63C338.908 323.019 338.541 323.28 338.128 323.28C337.592 323.28 337.158 322.846 337.158 322.31V319.381L324.642 323.28H311.98C310.139 323.28 308.647 321.788 308.647 319.947C308.647 318.613 309.44 317.409 310.664 316.883Z" fill="black"/>
<path d="M389.564 313.617L389.579 308.37L407.875 314.174L407.123 310.483L421.992 316.927C423.214 317.457 424.004 318.663 424 319.995C423.995 321.836 422.498 323.324 420.657 323.318L407.995 323.281L395.053 319.208L395.044 322.274C395.042 322.81 394.607 323.243 394.071 323.241C393.659 323.24 393.292 322.978 393.157 322.589L391.448 317.659C390.276 316.681 389.559 315.212 389.564 313.617Z" fill="black"/>
<path d="M353.303 28.9894V57.8767H368.028H381.573H382.508H400.849C400.849 57.8767 400.849 35.6942 400.849 22.7997C400.849 8.92914 389.687 6.51686 389.687 6.51686C389.687 6.51686 385.629 0 373.819 0C359.61 0 350.134 8.705 350.134 19.4502C350.134 24.3848 352.14 27.5622 353.303 28.9894ZM353.543 24.1959C355.34 23.7898 360.392 19.3392 360.392 14.7746C364.346 21.3164 376.433 30.7295 394.405 24.9838V24.985C394.461 24.977 394.517 24.9719 394.576 24.9719C398.851 24.9719 399.149 36.8624 391.954 37.5495C391.848 37.8985 391.739 38.2305 391.628 38.5405V57.8767H375.399V50.3607C374.268 50.6798 373.184 50.863 372.191 50.863C365.477 50.863 353.808 40.5078 353.543 24.1959Z" fill="black"/>
<path d="M375.399 50.3608C374.267 50.6798 373.183 50.863 372.19 50.863C365.477 50.863 353.808 40.5078 353.543 24.1949C355.34 23.7889 360.392 19.3382 360.392 14.7737C364.346 21.3154 376.433 30.7285 394.405 24.9829V24.9838C394.461 24.9758 394.517 24.9709 394.576 24.9709C398.851 24.9709 399.149 36.8614 391.954 37.5485C391.848 37.8976 391.739 38.2296 391.628 38.5396V51.547L404.339 57.4866V73.2255H362.101V56.1237L375.399 52.0722L375.399 50.3608Z" fill="#FCBEB7"/>
<path d="M362.1 73.2274V56.1256L375.398 52.0741V50.3617C379.159 49.3006 383.433 46.7305 386.572 44.3322L362.1 73.2274Z" fill="#F9AFAB"/>
<path d="M384.066 37.9675C386.512 37.9675 388.494 35.9853 388.494 33.54C388.494 31.0948 386.512 29.1125 384.066 29.1125C381.621 29.1125 379.639 31.0948 379.639 33.54C379.639 35.9853 381.621 37.9675 384.066 37.9675Z" fill="#F49795"/>
<path d="M354.112 29.8645C354.673 32.8379 355.614 35.5491 356.802 37.9614C359.143 37.8464 361.006 35.9103 361.006 33.54C361.006 31.0947 359.023 29.1135 356.579 29.1135C355.667 29.1135 354.818 29.3895 354.112 29.8645Z" fill="#F49795"/>
<path d="M355.327 26.349C355.327 29.8084 358.141 32.6227 361.601 32.6227C364.98 32.6227 367.743 29.9352 367.868 26.5859C369.757 25.5147 371.414 26.279 371.935 26.579C372.057 29.9324 374.82 32.6227 378.202 32.6227C381.662 32.6227 384.476 29.8084 384.476 26.349C384.476 22.8896 381.662 20.0751 378.202 20.0751C374.971 20.0751 372.303 22.5315 371.966 25.6749C371.147 25.2988 369.597 24.8507 367.838 25.6778C367.502 22.5324 364.833 20.0751 361.601 20.0751C358.141 20.0751 355.327 22.8896 355.327 26.349ZM372.75 26.349C372.75 23.3417 375.196 20.8962 378.204 20.8962C381.21 20.8962 383.657 23.3427 383.657 26.349C383.657 29.3554 381.211 31.8025 378.204 31.8025C375.196 31.8025 372.75 29.3554 372.75 26.349ZM356.148 26.349C356.148 23.3417 358.594 20.8962 361.602 20.8962C364.608 20.8962 367.055 23.3427 367.055 26.349C367.055 29.3554 364.609 31.8025 361.602 31.8025C358.594 31.8025 356.148 29.3554 356.148 26.349Z" fill="white"/>
<path d="M361.597 28.08C362.091 28.08 362.492 27.679 362.492 27.1849V25.5128C362.492 25.0188 362.091 24.6178 361.597 24.6178C361.103 24.6178 360.702 25.0188 360.702 25.5128V27.1849C360.702 27.6799 361.103 28.08 361.597 28.08Z" fill="#311643"/>
<path d="M377.93 28.08C378.424 28.08 378.825 27.679 378.825 27.1849V25.5128C378.825 25.0188 378.424 24.6178 377.93 24.6178C377.435 24.6178 377.035 25.0188 377.035 25.5128V27.1849C377.035 27.6799 377.435 28.08 377.93 28.08Z" fill="#311643"/>
<path d="M371.539 40.9942C373.137 40.9942 374.225 40.3933 374.884 39.8463C375.715 39.1563 376.06 38.4035 376.075 38.3715C376.168 38.1645 376.076 37.9212 375.869 37.8282C375.663 37.7352 375.421 37.8273 375.327 38.0323C375.28 38.1343 374.145 40.5134 370.848 40.1324C370.622 40.1064 370.419 40.2673 370.393 40.4923C370.367 40.7173 370.528 40.9214 370.754 40.9474C371.028 40.9804 371.29 40.9942 371.539 40.9942Z" fill="#311643"/>
<path d="M403.714 125.901L410.469 154.505C412.419 162.766 413.188 171.261 412.751 179.737L406.482 301.44H389.123L381.711 175.134L344.781 301.44H327.422L357.986 125.9H403.714V125.901Z" fill="black"/>
<path d="M380.744 65.4897C377.662 65.4897 375.196 62.5212 373.534 59.5149H391.112C388.432 62.5132 384.759 65.4897 380.744 65.4897Z" fill="white"/>
<path d="M347.855 65.7197C350.565 61.5022 354.685 58.3847 359.481 56.9245L371.13 53.3772C371.13 53.8673 371.982 56.7076 373.534 59.5149C375.196 62.5212 377.662 65.4897 380.744 65.4897C384.76 65.4897 388.431 62.5132 391.112 59.5149C393.833 56.4725 395.532 53.4082 395.532 53.4082L406.165 58.3348C410.988 60.5691 414.443 64.9836 415.453 70.2012L422.539 106.792H408.128L406.034 92.9929L403.714 125.901H357.986L353.832 90.8745L342.94 100.672L333.904 87.4371L347.855 65.7197Z" fill="#FE9ECC"/>
<path d="M333.904 87.4371L346.592 97.3862L342.939 100.672L333.904 87.4371Z" fill="#FF78BA"/>
<path d="M284.274 53.0321L299.266 47.8946C300.76 47.4165 302.387 47.5955 303.741 48.3856L309.564 51.7859L342.939 100.673L338.353 104.862C334.562 108.325 328.511 107.199 326.219 102.605L304.251 58.5686L298.794 59.2377C297.97 59.3387 297.135 59.1847 296.401 58.7967L294.475 57.7775C293.575 57.3015 292.886 56.5045 292.546 55.5453L292.151 54.4322L284.834 55.4223C284.238 55.5133 283.663 55.1584 283.478 54.5843C283.268 53.9342 283.625 53.2391 284.274 53.0321Z" fill="#FCBEB7"/>
<path d="M402.062 157.856L405.427 154.83L408.128 106.792H422.539L413.539 156.455L413.548 167.731C413.463 169.263 412.794 170.703 411.678 171.754L410.282 173.071C408.573 174.681 406.289 175.538 403.944 175.447L401.942 175.37C401.232 175.343 400.811 174.563 401.178 173.955L404.085 169.145L403.839 160.165L402.39 165.401C402.146 166.284 401.258 166.826 400.361 166.641V161.675C400.359 160.218 400.978 158.829 402.062 157.856Z" fill="#FCBEB7"/>
<path d="M403.714 125.901H357.986L357.34 129.614L404.003 127.126L403.714 125.901Z" fill="black"/>
<path d="M327.263 104.185C329.917 107.298 334.698 107.849 338.003 105.161C337.706 102.404 335.371 100.257 332.535 100.257C330.044 100.258 327.939 101.914 327.263 104.185Z" fill="#F9AFAB"/>
</g>
<defs>
<filter id="filter0_d" x="0" y="0" width="428" height="331.32" filterUnits="userSpaceOnUse" color-interpolation-filters="sRGB">
<feFlood flood-opacity="0" result="BackgroundImageFix"/>
<feColorMatrix in="SourceAlpha" type="matrix" values="0 0 0 0 0 0 0 0 0 0 0 0 0 0 0 0 0 0 127 0"/>
<feOffset dy="4"/>
<feGaussianBlur stdDeviation="2"/>
<feColorMatrix type="matrix" values="0 0 0 0 0 0 0 0 0 0 0 0 0 0 0 0 0 0 0.25 0"/>
<feBlend mode="normal" in2="BackgroundImageFix" result="effect1_dropShadow"/>
<feBlend mode="normal" in="SourceGraphic" in2="effect1_dropShadow" result="shape"/>
</filter>
<linearGradient id="paint0_linear" x1="191.342" y1="74.1826" x2="176.551" y2="81.4295" gradientUnits="userSpaceOnUse">
<stop stop-color="#6FAEF7"/>
<stop offset="1" stop-color="#8AC0FE"/>
</linearGradient>
<linearGradient id="paint1_linear" x1="195.404" y1="130.765" x2="184.062" y2="131.02" gradientUnits="userSpaceOnUse">
<stop stop-color="#6FAEF7"/>
<stop offset="1" stop-color="#8AC0FE"/>
</linearGradient>
<linearGradient id="paint2_linear" x1="214.149" y1="113.648" x2="202.805" y2="113.834" gradientUnits="userSpaceOnUse">
<stop stop-color="#6FAEF7"/>
<stop offset="1" stop-color="#8AC0FE"/>
</linearGradient>
<linearGradient id="paint3_linear" x1="236.723" y1="130.765" x2="225.382" y2="131.02" gradientUnits="userSpaceOnUse">
<stop stop-color="#6FAEF7"/>
<stop offset="1" stop-color="#8AC0FE"/>
</linearGradient>
<linearGradient id="paint4_linear" x1="255.468" y1="113.648" x2="244.124" y2="113.834" gradientUnits="userSpaceOnUse">
<stop stop-color="#6FAEF7"/>
<stop offset="1" stop-color="#8AC0FE"/>
</linearGradient>
<linearGradient id="paint5_linear" x1="278.042" y1="143.241" x2="266.706" y2="143.59" gradientUnits="userSpaceOnUse">
<stop stop-color="#6FAEF7"/>
<stop offset="1" stop-color="#8AC0FE"/>
</linearGradient>
<linearGradient id="paint6_linear" x1="296.787" y1="130.765" x2="285.446" y2="131.02" gradientUnits="userSpaceOnUse">
<stop stop-color="#6FAEF7"/>
<stop offset="1" stop-color="#8AC0FE"/>
</linearGradient>
<linearGradient id="paint7_linear" x1="110.89" y1="168.128" x2="30.9723" y2="174.617" gradientUnits="userSpaceOnUse">
<stop stop-color="#6FAEF7"/>
<stop offset="1" stop-color="#8AC0FE"/>
</linearGradient>
</defs>
</svg>
