<svg width="90" height="76" viewBox="0 0 90 76" fill="none" xmlns="http://www.w3.org/2000/svg">
<path d="M88.0414 8.14926H84.0139V63.9096C84.0139 63.9096 78.5991 65.5744 65.8066 61.5049C57.1813 58.7611 50.7291 62.0716 47.4404 64.5195C46.7408 65.0402 45.9097 65.9011 45.0538 65.9011H45.0002H44.9467C44.0909 65.9011 43.2596 65.0404 42.5601 64.5197C39.2714 62.0718 32.819 58.7611 24.1937 61.5049C11.4014 65.5744 5.98643 63.9096 5.98643 63.9096V8.14926H1.95891C0.876976 8.14926 0 9.07496 0 10.217V68.3533C0 69.4953 0.877152 70.421 1.95891 70.421H37.1491C38.1872 70.421 39.1519 71.0343 39.5956 72.0249C40.5524 74.1618 42.6122 75.6405 45 75.6405C47.3878 75.6405 49.4476 74.1618 50.4044 72.0249C50.8481 71.0341 51.8128 70.421 52.8509 70.421H88.0411C89.123 70.421 90 69.4953 90 68.3533V10.217C90.0004 9.07496 89.1232 8.14926 88.0414 8.14926Z" fill="#F87C68"/>
<path d="M10.0203 68.3531V64.2405C7.25698 64.3 5.98678 63.9096 5.98678 63.9096V8.14926H1.95891C0.876976 8.14926 0 9.07496 0 10.217V68.3533C0 69.4953 0.876976 70.421 1.95891 70.421H11.9792C10.8972 70.421 10.0203 69.4951 10.0203 68.3531Z" fill="#EC625E"/>
<path d="M82.8074 3.69929C80.1979 3.92028 74.6267 3.84049 65.8065 1.03465C53.0141 -3.03495 45.0002 6.21382 45.0002 6.21382L43.6045 8.14926V63.8486L45.0002 65.8258V65.9013H45.0535C45.9095 65.9013 46.7408 65.6139 47.4402 65.0932C50.7289 62.6451 57.1812 59.3348 65.8065 62.0787C78.599 66.1481 84.5571 64.4833 84.5571 64.4833V5.40762C84.5571 4.40808 83.7513 3.61932 82.8074 3.69929Z" fill="#DBEDFF"/>
<path d="M50.3132 2.24814C46.8955 4.02716 45.0002 6.21383 45.0002 6.21383L43.6045 8.14927V63.8486L45.0002 65.8258V65.9013H45.0535C45.9095 65.9013 46.7408 65.6139 47.4402 65.0932C48.2226 64.5108 49.1861 63.8801 50.3132 63.2932V2.24814Z" fill="#B5DCFF"/>
<path d="M78.2405 14.9889C78.2056 14.9889 78.1704 14.9876 78.1351 14.9846C74.3292 14.6762 70.0495 13.7724 65.4144 12.2979C60.6996 10.7978 56.1374 11.0232 51.8543 12.9666C51.165 13.2795 50.3664 12.9429 50.0701 12.2157C49.7739 11.4882 50.0924 10.6451 50.7815 10.3324C55.668 8.11531 60.8548 7.85331 66.1981 9.55292C70.6457 10.9677 74.7319 11.8335 78.3428 12.1261C79.0908 12.1866 79.6505 12.8757 79.593 13.6652C79.5385 14.4172 78.9435 14.9889 78.2405 14.9889Z" fill="#8BCAFF"/>
<path d="M78.2405 21.0817C78.2056 21.0817 78.1706 21.0804 78.1351 21.0774C74.3301 20.7694 70.0503 19.8654 65.4144 18.3907C60.6996 16.8908 56.1374 17.1158 51.8543 19.0594C51.165 19.3721 50.3664 19.0359 50.0701 18.3085C49.7739 17.581 50.0924 16.7379 50.7815 16.4252C55.668 14.2081 60.8548 13.9459 66.1981 15.6457C70.6468 17.0609 74.7328 17.9267 78.3427 18.2189C79.0906 18.2794 79.6503 18.9683 79.593 19.7578C79.5387 20.51 78.9435 21.0817 78.2405 21.0817Z" fill="#8BCAFF"/>
<path d="M78.2405 51.5463C78.2056 51.5463 78.1704 51.545 78.1351 51.542C74.329 51.2336 70.0493 50.3296 65.4144 48.8551C60.6998 47.3555 56.1375 47.5806 51.8543 49.524C51.165 49.8368 50.3664 49.5002 50.0701 48.7731C49.7739 48.0455 50.0924 47.2024 50.7815 46.8898C55.668 44.6727 60.8548 44.4103 66.1981 46.1101C70.6457 47.5251 74.7318 48.3908 78.3428 48.6835C79.0908 48.7439 79.6505 49.4331 79.593 50.2226C79.5385 50.9746 78.9435 51.5463 78.2405 51.5463Z" fill="#8BCAFF"/>
<path d="M78.2405 57.6393C78.2056 57.6393 78.1704 57.638 78.1351 57.635C74.3292 57.3266 70.0495 56.4228 65.4144 54.9483C60.6996 53.4483 56.1374 53.6736 51.8543 55.617C51.165 55.9297 50.3664 55.5933 50.0701 54.8661C49.7739 54.1386 50.0924 53.2954 50.7815 52.9828C55.668 50.7657 60.8548 50.5037 66.1981 52.2033C70.6457 53.6181 74.7319 54.4839 78.3428 54.7765C79.0908 54.837 79.6505 55.5261 79.593 56.3156C79.5385 57.0674 78.9435 57.6393 78.2405 57.6393Z" fill="#8BCAFF"/>
<path d="M78.2405 27.1747C78.2056 27.1747 78.1704 27.1734 78.1351 27.1704C74.329 26.862 70.0493 25.9581 65.4144 24.4835C60.6998 22.9839 56.1375 23.209 51.8543 25.1524C51.165 25.4651 50.3664 25.1287 50.0701 24.4015C49.7739 23.674 50.0924 22.8308 50.7815 22.5182C55.668 20.3011 60.8548 20.0387 66.1981 21.7385C70.6457 23.1535 74.7318 24.0193 78.3428 24.3119C79.0908 24.3724 79.6505 25.0615 79.593 25.851C79.5385 26.603 78.9435 27.1747 78.2405 27.1747Z" fill="#8BCAFF"/>
<path d="M78.2406 39.3605C78.2058 39.3605 78.1707 39.3592 78.1353 39.3564C74.3303 39.0482 70.0506 38.1443 65.4147 36.6695C60.6999 35.1696 56.1376 35.3948 51.8545 37.3382C51.1653 37.6511 50.3667 37.3145 50.0703 36.5873C49.7741 35.8598 50.0926 35.0167 50.7817 34.704C55.6683 32.4869 60.8551 32.2248 66.1983 33.9246C70.647 35.3397 74.7331 36.2055 78.3429 36.4975C79.0909 36.5582 79.6506 37.2471 79.5933 38.0366C79.5388 38.7885 78.9436 39.3605 78.2406 39.3605Z" fill="#8BCAFF"/>
<path d="M78.2405 33.2676C78.2056 33.2676 78.1704 33.2663 78.1351 33.2634C74.3292 32.955 70.0494 32.0512 65.4144 30.5766C60.7 29.0769 56.1377 29.3016 51.8543 31.2454C51.165 31.558 50.3664 31.2216 50.0701 30.4945C49.7739 29.7669 50.0924 28.9238 50.7815 28.6112C55.668 26.3941 60.8548 26.1317 66.1981 27.8317C70.6457 29.2465 74.7319 30.1122 78.3427 30.4048C79.0906 30.4653 79.6503 31.1544 79.5928 31.9439C79.5385 32.6958 78.9435 33.2676 78.2405 33.2676Z" fill="#8BCAFF"/>
<path d="M78.2406 45.4533C78.2058 45.4533 78.1707 45.452 78.1353 45.4492C74.3296 45.141 70.0499 44.237 65.4147 42.7623C60.7 41.2625 56.1378 41.4876 51.8545 43.4312C51.1653 43.744 50.3667 43.4076 50.0703 42.6803C49.7741 41.9527 50.0926 41.1096 50.7817 40.797C55.6683 38.5799 60.8551 38.3173 66.1983 40.0173C70.6463 41.4323 74.7324 42.298 78.3429 42.5903C79.0909 42.651 79.6506 43.3399 79.5933 44.1294C79.5388 44.8814 78.9436 45.4533 78.2406 45.4533Z" fill="#8BCAFF"/>
<path d="M7.19302 3.69929C9.80251 3.92028 15.3737 3.84049 24.194 1.03465C36.9863 -3.03495 45.0002 6.21382 45.0002 6.21382V65.9013H44.9468C44.0909 65.9013 43.2596 65.6139 42.56 65.0932C39.2713 62.6451 32.819 59.3348 24.1938 62.0785C11.4012 66.1479 5.44312 64.4832 5.44312 64.4832V5.40762C5.44329 4.40808 6.24908 3.61932 7.19302 3.69929Z" fill="#DBEDFF"/>
<path d="M11.4191 3.69095C9.58009 3.82287 8.17612 3.78242 7.19297 3.6993C6.24902 3.61933 5.44324 4.40809 5.44324 5.40763V64.4832C5.44324 64.4832 7.38352 65.0229 11.4191 64.734V3.69095Z" fill="#B5DCFF"/>
<path d="M11.7599 14.9889C11.0569 14.9889 10.4619 14.4173 10.4073 13.665C10.3498 12.8755 10.9096 12.1864 11.6574 12.1259C15.2683 11.8333 19.3544 10.9676 23.8022 9.55277C29.1456 7.85279 34.3324 8.11515 39.2188 10.3323C39.9079 10.6449 40.2264 11.488 39.9302 12.2156C39.634 12.9431 38.8352 13.2789 38.146 12.9665C33.8629 11.0229 29.3007 10.7982 24.5858 12.2978C19.951 13.7723 15.6712 14.6761 11.8652 14.9845C11.83 14.9876 11.7947 14.9889 11.7599 14.9889Z" fill="#8BCAFF"/>
<path d="M11.7599 21.0817C11.0569 21.0817 10.4617 20.5098 10.4072 19.7576C10.3499 18.9681 10.9096 18.2792 11.6576 18.2187C15.2676 17.9265 19.3537 17.0607 23.8022 15.6455C29.1456 13.9456 34.3324 14.2079 39.2188 16.425C39.9078 16.7377 40.2264 17.5808 39.9302 18.3083C39.634 19.0359 38.8352 19.3719 38.146 19.0592C33.8629 17.1154 29.3006 16.8911 24.5858 18.3905C19.9499 19.8653 15.6701 20.7692 11.8652 21.0773C11.8298 21.0804 11.7947 21.0817 11.7599 21.0817Z" fill="#8BCAFF"/>
<path d="M11.7599 51.5462C11.0569 51.5462 10.4619 50.9744 10.4073 50.2224C10.3498 49.4329 10.9096 48.7437 11.6574 48.6833C15.2685 48.3907 19.3546 47.5249 23.802 46.1099C29.1453 44.4103 34.3322 44.6725 39.2186 46.8896C39.9077 47.2022 40.2262 48.0454 39.93 48.7729C39.6338 49.5002 38.8351 49.8364 38.1458 49.5238C33.8627 47.5804 29.3003 47.3551 24.5857 48.8549C19.951 50.3294 15.6712 51.2334 11.865 51.5418C11.83 51.5449 11.7947 51.5462 11.7599 51.5462Z" fill="#8BCAFF"/>
<path d="M11.7599 57.6393C11.0569 57.6393 10.4619 57.0674 10.4073 56.3154C10.3498 55.5259 10.9096 54.8368 11.6574 54.7763C15.2683 54.4837 19.3544 53.6179 23.8022 52.2031C29.1456 50.5031 34.3324 50.7655 39.2188 52.9826C39.9079 53.2952 40.2264 54.1384 39.9302 54.8659C39.634 55.5934 38.8352 55.9293 38.146 55.6168C33.8629 53.673 29.3007 53.4487 24.5858 54.9481C19.951 56.4226 15.6712 57.3264 11.8652 57.6348C11.83 57.6378 11.7947 57.6393 11.7599 57.6393Z" fill="#8BCAFF"/>
<path d="M11.7599 27.1747C11.0569 27.1747 10.4619 26.6028 10.4073 25.8508C10.3498 25.0613 10.9096 24.3722 11.6574 24.3117C15.2685 24.0191 19.3546 23.1533 23.802 21.7383C29.1453 20.0387 34.3322 20.3009 39.2186 22.518C39.9077 22.8307 40.2262 23.6738 39.93 24.4013C39.6338 25.1287 38.8351 25.4649 38.1458 25.1522C33.8627 23.2088 29.3003 22.9835 24.5857 24.4833C19.951 25.9579 15.6712 26.8618 11.865 27.1702C11.83 27.1734 11.7947 27.1747 11.7599 27.1747Z" fill="#8BCAFF"/>
<path d="M11.7599 39.3605C11.0569 39.3605 10.4617 38.7886 10.4072 38.0364C10.3499 37.2469 10.9096 36.558 11.6576 36.4973C15.2676 36.2052 19.3537 35.3395 23.8022 33.9243C29.1456 32.2241 34.3324 32.4867 39.2188 34.7038C39.9078 35.0164 40.2264 35.8596 39.9302 36.5871C39.634 37.3146 38.8352 37.6508 38.146 37.338C33.8629 35.3942 29.3006 35.1699 24.5858 36.6693C19.9499 38.144 15.6701 39.048 11.8652 39.3562C11.8298 39.3592 11.7947 39.3605 11.7599 39.3605Z" fill="#8BCAFF"/>
<path d="M11.7599 33.2677C11.0569 33.2677 10.4619 32.696 10.4073 31.9438C10.3498 31.1543 10.9096 30.4652 11.6574 30.4047C15.2683 30.1121 19.3544 29.2463 23.8022 27.8315C29.1454 26.1315 34.3324 26.3937 39.2188 28.611C39.9079 28.9236 40.2264 29.7668 39.9302 30.4943C39.634 31.2218 38.8352 31.5578 38.146 31.2452C33.8627 29.3014 29.3005 29.0769 24.586 30.5765C19.9512 32.051 15.6712 32.9548 11.8654 33.2632C11.83 33.2664 11.7947 33.2677 11.7599 33.2677Z" fill="#8BCAFF"/>
<path d="M11.7599 45.4533C11.0569 45.4533 10.4617 44.8816 10.4072 44.1292C10.3499 43.3397 10.9096 42.6508 11.6576 42.5901C15.2681 42.2979 19.3542 41.4321 23.8022 40.0171C29.1454 38.3175 34.3324 38.5797 39.2188 40.7968C39.9078 41.1094 40.2264 41.9525 39.9302 42.6801C39.634 43.4076 38.8352 43.7438 38.146 43.431C33.8629 41.4876 29.3005 41.2625 24.5858 42.7621C19.9506 44.2368 15.6708 45.1408 11.8652 45.449C11.8298 45.452 11.7947 45.4533 11.7599 45.4533Z" fill="#8BCAFF"/>
</svg>
